<?xml version="1.0" encoding="utf-8"?>
<!-- Generator: Adobe Illustrator 16.0.0, SVG Export Plug-In . SVG Version: 6.00 Build 0)  -->
<!DOCTYPE svg PUBLIC "-//W3C//DTD SVG 1.1//EN" "http://www.w3.org/Graphics/SVG/1.1/DTD/svg11.dtd">
<svg version="1.1" id="Capa_1" xmlns="http://www.w3.org/2000/svg" xmlns:xlink="http://www.w3.org/1999/xlink" x="0px" y="0px"
	 width="60px" height="60px" viewBox="0 0 60 60" enable-background="new 0 0 60 60" xml:space="preserve">
<path fill="#DB0505" d="M59.635,25.365L34.636,0.366C34.4,0.132,34.082,0,33.751,0.001H1.252C0.562,0,0.001,0.559,0,1.249
	c0,0.333,0.132,0.652,0.367,0.887l57.498,57.498C58.1,59.868,58.418,60,58.75,59.999c0.164,0,0.326-0.032,0.478-0.095
	C59.695,59.711,60,59.255,60,58.749V26.25C60,25.918,59.869,25.6,59.635,25.365z"/>
<g>
	<path fill="#FAFAFA" d="M26.251,20c-0.69,0-1.25-0.56-1.25-1.25c0-0.084,0.008-0.167,0.025-0.25l1.69-8.452l-4.58,4.587
		c-0.497,0.479-1.288,0.466-1.767-0.031c-0.468-0.484-0.468-1.252,0-1.737l7.5-7.5c0.488-0.488,1.279-0.488,1.768,0
		c0.295,0.295,0.424,0.718,0.342,1.128l-1.69,8.452l4.583-4.58c0.479-0.497,1.271-0.51,1.768-0.031
		c0.496,0.48,0.51,1.271,0.03,1.768c-0.01,0.01-0.021,0.021-0.03,0.031l-7.5,7.5C26.903,19.87,26.584,20.001,26.251,20z"/>
	<path fill="#FAFAFA" d="M33.751,27.5c-0.331,0-0.649-0.13-0.885-0.365l-3.75-3.75c-0.488-0.488-0.488-1.279,0-1.768l7.499-7.5
		c0.488-0.488,1.279-0.488,1.768,0l3.75,3.75c0.497,0.48,0.511,1.271,0.031,1.768c-0.48,0.497-1.271,0.51-1.768,0.031
		c-0.01-0.01-0.021-0.021-0.031-0.031l-2.864-2.867L31.769,22.5l2.864,2.865c0.489,0.487,0.49,1.279,0.003,1.768
		C34.401,27.368,34.083,27.5,33.751,27.5z"/>
	<path fill="#FAFAFA" d="M36.251,22.5c-0.332,0-0.65-0.131-0.886-0.365l-2.499-2.5c-0.479-0.496-0.466-1.288,0.03-1.767
		c0.484-0.468,1.252-0.468,1.736,0l2.5,2.5c0.488,0.489,0.486,1.281-0.002,1.768C36.896,22.369,36.58,22.5,36.251,22.5z"/>
	<path fill="#FAFAFA" d="M43.75,37.5c-0.689,0-1.249-0.561-1.248-1.251c0-0.134,0.021-0.267,0.063-0.394l1.71-5.128l-5.127,1.71
		c-0.48,0.156-1.007,0.012-1.34-0.367c-0.331-0.383-0.398-0.926-0.173-1.378l5-10c0.309-0.618,1.06-0.869,1.677-0.56
		c0.619,0.309,0.869,1.06,0.561,1.677l0,0l-3.65,7.3l4.638-1.545c0.45-0.147,0.944-0.03,1.28,0.302
		c0.335,0.335,0.452,0.831,0.303,1.28l-1.545,4.635l7.299-3.65c0.618-0.309,1.369-0.058,1.678,0.56s0.059,1.368-0.561,1.677
		l-9.999,5C44.141,37.457,43.946,37.502,43.75,37.5z"/>
</g>
</svg>
