<svg xmlns="http://www.w3.org/2000/svg" data-name="Layer 2" viewBox="0 0 64 64"><path d="M60.33,11.06l-1.72-.6a4,4,0,0,0-5.16,2.67l-1.18,4.12a4,4,0,0,0,2.55,4.89l1.72.59L54.2,33H48V27a1,1,0,0,0-1-1H33V22.6a8.31,8.31,0,0,0,5.8-5.85C40,12,35.68,9.35,32,12.59c-3.68-3.23-8-.61-6.8,4.16A8.31,8.31,0,0,0,31,22.6V26H17a1,1,0,0,0-1,1v6H9.8L7.46,22.73l1.72-.59a4,4,0,0,0,2.55-4.89l-1.18-4.12a4,4,0,0,0-5.16-2.67l-1.72.6A1,1,0,0,0,3,12.22L8,34.11V55h2V39h6v5.58a1,1,0,0,0,1,1c2.21,0,2.74-.77,3.95-1L23.06,55h2L23,44.52c1.27.27,1.78,1.06,4,1.06s2.72-.78,4-1.06V53H28v2h8V53H33V44.52c1.28.27,1.76,1.06,4,1.06s2.74-.79,4-1.06L38.9,55h2l2.11-10.47c1.27.29,1.72,1,4,1a1,1,0,0,0,1-1V39h6V55h2V34.11l5-21.89A1,1,0,0,0,60.33,11.06Zm-33.19,5.2c-.8-3.23,1.93-4.24,4.08-1.61a1,1,0,0,0,1.56,0,4.23,4.23,0,0,1,2.37-1.49c1.24-.13,2.23,1,1.71,3.1A6.36,6.36,0,0,1,32,20.83,6.36,6.36,0,0,1,27.14,16.26Zm-22-3.61.88-.3a2,2,0,0,1,2.58,1.33L9.81,17.8a2,2,0,0,1-1.28,2.45L7,20.77ZM10,37V35h6v2Zm36,6.49c-1.21-.26-1.74-1.07-4-1.07-2.69,0-2.87,1.16-5,1.16s-2.31-1.16-5-1.16-2.88,1.16-5,1.16-2.31-1.16-5-1.16c-2.27,0-2.8.81-4,1.07V28H46ZM48,37V35h6v2Zm9-16.23-1.51-.52a2,2,0,0,1-1.28-2.45l1.18-4.12A2,2,0,0,1,58,12.35l.88.3Z"/></svg>